Coordinates
version=1
nRows=14
nColumns=38
inDegrees=no

Units are S.I. units (second, meters, Newtons, ...)
If the header above contains a line with 'inDegrees', this indicates whether rotational values are in degrees (yes) or radians (no).

endheader
time	pelvis_tilt	pelvis_list	pelvis_rotation	pelvis_tx	pelvis_ty	pelvis_tz	hip_flexion_r	hip_adduction_r	hip_rotation_r	knee_angle_r	ankle_angle_r	subtalar_angle_r	mtp_angle_r	hip_flexion_l	hip_adduction_l	hip_rotation_l	knee_angle_l	ankle_angle_l	subtalar_angle_l	mtp_angle_l	lumbar_extension	lumbar_bending	lumbar_rotation	arm_flex_r	arm_add_r	arm_rot_r	elbow_flex_r	pro_sup_r	wrist_flex_r	wrist_dev_r	arm_flex_l	arm_add_l	arm_rot_l	elbow_flex_l	pro_sup_l	wrist_flex_l	wrist_dev_l
10	0.153213	1.42078	1.46096	0.651758	0.287462	0.82909	1.03698	-0.134312	-0.036282	1.44656	-0.236492	0	0	0.951813	-0.243951	-0.128156	1.48848	-0.0392216	0	0	-0.62733	0.20808	0.0157533	0.740913	-0.420588	1.52584	0.325045	0	0	0	-0.107066	-0.190979	-0.0759528	0.866576	1.5708	0	0
10.01	0.155342	1.42017	1.45982	0.651535	0.287373	0.830194	1.03471	-0.133804	-0.0363891	1.44327	-0.235048	0	0	0.950179	-0.24353	-0.128924	1.48438	-0.0401774	0	0	-0.626199	0.208909	0.0155497	0.739133	-0.422367	1.51977	0.327289	0	0	0	-0.107329	-0.190889	-0.0761994	0.864541	1.5708	0	0
10.02	0.155644	1.41933	1.46016	0.651291	0.287285	0.831372	1.0323	-0.13329	-0.0361779	1.43994	-0.233648	0	0	0.94837	-0.242989	-0.13011	1.47983	-0.0410554	0	0	-0.624627	0.209282	0.0153506	0.737692	-0.424271	1.51579	0.329202	0	0	0	-0.107398	-0.190768	-0.0762965	0.862153	1.5708	0	0
10.03	0.155229	1.4188	1.46155	0.651025	0.28718	0.832643	1.03048	-0.13319	-0.0360733	1.43624	-0.23491	0	0	0.94616	-0.242034	-0.131203	1.47502	-0.0420235	0	0	-0.623201	0.209613	0.0151243	0.736197	-0.426517	1.51213	0.331141	0	0	0	-0.107135	-0.190671	-0.0762367	0.859909	1.5708	0	0
10.04	0.154024	1.4187	1.46343	0.650789	0.287144	0.834054	1.02817	-0.13298	-0.0360227	1.43164	-0.236517	0	0	0.943032	-0.241466	-0.133027	1.46991	-0.0431719	0	0	-0.622244	0.209422	0.0155224	0.734104	-0.429067	1.50724	0.332997	0	0	0	-0.106527	-0.190358	-0.0765486	0.857832	1.5708	0	0
10.05	0.152723	1.41937	1.46543	0.650548	0.287145	0.835671	1.02411	-0.13302	-0.036287	1.42647	-0.236493	0	0	0.938683	-0.240852	-0.135203	1.46443	-0.0444996	0	0	-0.622044	0.209155	0.0158577	0.731907	-0.431753	1.50184	0.33499	0	0	0	-0.105755	-0.189926	-0.0771575	0.855956	1.5708	0	0
10.06	0.153152	1.42107	1.46585	0.650313	0.287161	0.83752	1.0179	-0.133228	-0.036862	1.42127	-0.234928	0	0	0.932995	-0.240295	-0.13728	1.45861	-0.0460295	0	0	-0.622731	0.209087	0.0158696	0.730255	-0.434274	1.49799	0.336876	0	0	0	-0.104838	-0.189544	-0.0777229	0.854041	1.5708	0	0
10.07	0.154924	1.42336	1.46485	0.650113	0.287192	0.839511	1.01123	-0.133264	-0.0371409	1.41631	-0.234037	0	0	0.926559	-0.240116	-0.139453	1.45261	-0.0479477	0	0	-0.62379	0.209154	0.01559	0.729341	-0.436336	1.49677	0.338261	0	0	0	-0.104081	-0.189377	-0.0780273	0.852273	1.5708	0	0
10.08	0.158112	1.42586	1.46255	0.649904	0.287261	0.841583	1.00437	-0.133327	-0.037704	1.41123	-0.234105	0	0	0.919818	-0.240107	-0.141408	1.44644	-0.050168	0	0	-0.624581	0.209721	0.014501	0.729007	-0.437512	1.49666	0.338735	0	0	0	-0.103912	-0.189238	-0.0788008	0.851201	1.5708	0	0
10.09	0.161934	1.42799	1.45965	0.649664	0.287334	0.843658	0.997558	-0.133482	-0.038671	1.40598	-0.234403	0	0	0.91352	-0.240015	-0.143036	1.44005	-0.0523814	0	0	-0.624492	0.210558	0.0128811	0.729047	-0.438312	1.49766	0.339103	0	0	0	-0.104159	-0.188983	-0.0797615	0.850121	1.5708	0	0
10.1	0.161675	1.42681	1.46082	0.649412	0.287368	0.845365	0.995575	-0.133532	-0.038687	1.40066	-0.235311	0	0	0.911349	-0.239058	-0.143782	1.4341	-0.0523645	0	0	-0.620055	0.211194	0.0114216	0.727704	-0.439393	1.49647	0.339526	0	0	0	-0.104647	-0.188677	-0.0801781	0.8489	1.5708	0	0
10.11	0.163283	1.4285	1.45975	0.649167	0.287468	0.847485	0.989543	-0.133751	-0.0392546	1.39462	-0.236765	0	0	0.905027	-0.238547	-0.145658	1.42702	-0.0547299	0	0	-0.618781	0.211596	0.010035	0.727429	-0.440716	1.49667	0.341184	0	0	0	-0.105066	-0.188343	-0.0807919	0.848305	1.5708	0	0
10.12	0.167194	1.43218	1.45619	0.648914	0.287605	0.849878	0.980398	-0.134109	-0.0405955	1.38816	-0.237387	0	0	0.89603	-0.238404	-0.148194	1.41963	-0.0583303	0	0	-0.619289	0.21244	0.00736778	0.731354	-0.440335	1.51826	0.341719	0	0	0	-0.106094	-0.188649	-0.0806215	0.847769	1.5708	0	0
10.13	0.16828	1.43316	1.45541	0.648679	0.287755	0.852051	0.97403	-0.134323	-0.0416362	1.38163	-0.237176	0	0	0.890141	-0.237615	-0.14999	1.41239	-0.0596773	0	0	-0.616453	0.212772	0.00554794	0.732627	-0.440874	1.53005	0.342788	0	0	0	-0.106806	-0.188751	-0.0801197	0.846943	1.5708	0	0
